<svg xmlns="http://www.w3.org/2000/svg" width="840" height="56" viewBox="0 0 840 56" shape-rendering="crispEdges" role="img" aria-label="QUEST LOG"><title>QUEST LOG</title><rect width="840" height="56" fill="#1a1c2c"/><rect y="52" width="840" height="4" fill="#41a6f6"/><g ><rect x="40" y="12" width="4" height="4" fill="#94b0c2"/><rect x="36" y="16" width="4" height="4" fill="#94b0c2"/><rect x="40" y="16" width="4" height="4" fill="#94b0c2"/><rect x="32" y="20" width="4" height="4" fill="#94b0c2"/><rect x="36" y="20" width="4" height="4" fill="#94b0c2"/><rect x="20" y="24" width="4" height="4" fill="#ef7d57"/><rect x="28" y="24" width="4" height="4" fill="#94b0c2"/><rect x="32" y="24" width="4" height="4" fill="#94b0c2"/><rect x="24" y="28" width="4" height="4" fill="#ef7d57"/><rect x="28" y="28" width="4" height="4" fill="#94b0c2"/><rect x="20" y="32" width="4" height="4" fill="#ef7d57"/><rect x="24" y="32" width="4" height="4" fill="#ffcd75"/><rect x="28" y="32" width="4" height="4" fill="#ef7d57"/><rect x="16" y="36" width="4" height="4" fill="#ffcd75"/><rect x="28" y="36" width="4" height="4" fill="#ef7d57"/></g><path d="M68 12h4v4h-4zM72 12h4v4h-4zM76 12h4v4h-4zM64 16h4v4h-4zM80 16h4v4h-4zM64 20h4v4h-4zM80 20h4v4h-4zM64 24h4v4h-4zM80 24h4v4h-4zM64 28h4v4h-4zM72 28h4v4h-4zM80 28h4v4h-4zM64 32h4v4h-4zM76 32h4v4h-4zM68 36h4v4h-4zM72 36h4v4h-4zM80 36h4v4h-4zM88 12h4v4h-4zM104 12h4v4h-4zM88 16h4v4h-4zM104 16h4v4h-4zM88 20h4v4h-4zM104 20h4v4h-4zM88 24h4v4h-4zM104 24h4v4h-4zM88 28h4v4h-4zM104 28h4v4h-4zM88 32h4v4h-4zM104 32h4v4h-4zM92 36h4v4h-4zM96 36h4v4h-4zM100 36h4v4h-4zM112 12h4v4h-4zM116 12h4v4h-4zM120 12h4v4h-4zM124 12h4v4h-4zM128 12h4v4h-4zM112 16h4v4h-4zM112 20h4v4h-4zM112 24h4v4h-4zM116 24h4v4h-4zM120 24h4v4h-4zM124 24h4v4h-4zM112 28h4v4h-4zM112 32h4v4h-4zM112 36h4v4h-4zM116 36h4v4h-4zM120 36h4v4h-4zM124 36h4v4h-4zM128 36h4v4h-4zM140 12h4v4h-4zM144 12h4v4h-4zM148 12h4v4h-4zM152 12h4v4h-4zM136 16h4v4h-4zM136 20h4v4h-4zM140 24h4v4h-4zM144 24h4v4h-4zM148 24h4v4h-4zM152 28h4v4h-4zM152 32h4v4h-4zM136 36h4v4h-4zM140 36h4v4h-4zM144 36h4v4h-4zM148 36h4v4h-4zM160 12h4v4h-4zM164 12h4v4h-4zM168 12h4v4h-4zM172 12h4v4h-4zM176 12h4v4h-4zM168 16h4v4h-4zM168 20h4v4h-4zM168 24h4v4h-4zM168 28h4v4h-4zM168 32h4v4h-4zM168 36h4v4h-4zM208 12h4v4h-4zM208 16h4v4h-4zM208 20h4v4h-4zM208 24h4v4h-4zM208 28h4v4h-4zM208 32h4v4h-4zM208 36h4v4h-4zM212 36h4v4h-4zM216 36h4v4h-4zM220 36h4v4h-4zM224 36h4v4h-4zM236 12h4v4h-4zM240 12h4v4h-4zM244 12h4v4h-4zM232 16h4v4h-4zM248 16h4v4h-4zM232 20h4v4h-4zM248 20h4v4h-4zM232 24h4v4h-4zM248 24h4v4h-4zM232 28h4v4h-4zM248 28h4v4h-4zM232 32h4v4h-4zM248 32h4v4h-4zM236 36h4v4h-4zM240 36h4v4h-4zM244 36h4v4h-4zM260 12h4v4h-4zM264 12h4v4h-4zM268 12h4v4h-4zM272 12h4v4h-4zM256 16h4v4h-4zM256 20h4v4h-4zM256 24h4v4h-4zM268 24h4v4h-4zM272 24h4v4h-4zM256 28h4v4h-4zM272 28h4v4h-4zM256 32h4v4h-4zM272 32h4v4h-4zM260 36h4v4h-4zM264 36h4v4h-4zM268 36h4v4h-4zM272 36h4v4h-4z" fill="#f4f4f4" /><g><rect x="288" y="12" width="16" height="28" fill="#41a6f6"/><animate attributeName="opacity" values="1;0" dur="1s" begin="0s" calcMode="discrete" repeatCount="indefinite"/></g></svg>
